<svg xmlns="http://www.w3.org/2000/svg" xmlns:xlink="http://www.w3.org/1999/xlink" width="80" height="80" viewBox="0 0 80 80">
  <defs>
    <clipPath id="clip-path">
      <rect id="Rectángulo_466835" data-name="Rectángulo 466835" width="61.286" height="59.963" fill="#12263f"/>
    </clipPath>
  </defs>
  <g id="Grupo_1212264" data-name="Grupo 1212264" transform="translate(-175.889 -5521)">
    <rect id="Rectángulo_402006" data-name="Rectángulo 402006" width="80" height="80" rx="5" transform="translate(175.889 5521)" fill="#fe9841"/>
    <g id="Grupo_1213040" data-name="Grupo 1213040" transform="translate(185.246 5531.019)">
      <g id="Grupo_1213039" data-name="Grupo 1213039" clip-path="url(#clip-path)">
        <path id="Trazado_1275372" data-name="Trazado 1275372" d="M54.975,56.756a1.866,1.866,0,0,1-2.252.28c-1.2-.608-1.384-1.429-3.167-.206-.584,1.221-.691,3.13-2.2,3.131l-4.688,0a1.8,1.8,0,0,1-1.541-1.316c-.459-1.26-.008-2-2.125-2.467-1.442.558-2.67,1.846-3.944.569L32,53.689c-1.267-1.27.189-2.493.575-3.925-.415-2.025-1-1.641-2.33-2.06a2.092,2.092,0,0,1-1.452-2.5l-23-.041A5.8,5.8,0,0,1,0,39.337L.011,5.685A5.637,5.637,0,0,1,5.338,0L40.613,0c3.131,0,5.319,2.958,5.323,5.868l.025,21.709c1.214-.23,2.228-.061,2.74.837l.783,2.31a4.4,4.4,0,0,0,1.565.577c.934-.05,2.528-1.959,3.919-.57l3.057,3.054a1.754,1.754,0,0,1,.344,2.068l-.986,1.756c.191.473.3,1.252.716,1.608.682.588,3.157.41,3.167,2.379l.022,4.084c.012,2.348-2.622,2-3.187,2.6a2.9,2.9,0,0,0-.624,1.475c0,.894,1.937,2.545.655,3.832ZM44.059,8.286,44.07,5.42a3.756,3.756,0,0,0-3.477-3.576L5.548,1.822A3.784,3.784,0,0,0,1.876,5.437l.005,2.849ZM32.082,33.741l3.106-3.077a1.746,1.746,0,0,1,2.058-.189c1.278.622,1.638,1.409,3.258.205l.821-2.273c.577-.938,1.674-1.021,2.77-.874l0-17.393H1.848l.065,29.581c.005,2.243,2.218,3.634,4.255,3.662l22.516-.011a4.383,4.383,0,0,0,.092-1.573c-.061-2.286,2.5-1.918,3.178-2.555a2.586,2.586,0,0,0,.619-1.522c-.011-.926-2.024-2.463-.491-3.982M47.187,58.1c.575-3.129,1.229-2.751,2.472-3.389a2.186,2.186,0,0,1,2.07-.332l1.967,1,2.932-2.935c-.693-1.528-1.647-2.242-.717-3.949.68-1.249.252-1.971,3.427-2.56l.057-4.29a11.174,11.174,0,0,1-2.48-.834c-.534-.326-1.708-2.912-1.263-3.784l1-1.961L53.7,32.133l-1.918,1.018c-.888.471-3.734-.736-3.993-1.583l-.67-2.19h-4.2l-.682,2.209c-.254.822-3.09,2.024-3.995,1.554l-1.919-1L33.4,35.061l.947,1.779c.545,1.024-.617,3.889-1.622,4.207l-2.112.67.034,4.139,2.167.688c.824.262.9,1.169,1.256,1.821,1.175,2.137-.342,2.661-.562,4.161l2.822,2.857,2.121-1.054c.688-.342,3.25.784,3.6,1.348a10.7,10.7,0,0,1,.831,2.442Z" transform="translate(0 0)" fill="#12263f"/>
        <path id="Trazado_1275373" data-name="Trazado 1275373" d="M46.883,144.751l-18.54.008a.9.9,0,0,1-.974-.973.943.943,0,0,1,.987-.915l18.7.02c.479,0,.783.606.782.9a.963.963,0,0,1-.956.956" transform="translate(-21.783 -113.717)" fill="#12263f"/>
        <path id="Trazado_1275374" data-name="Trazado 1275374" d="M47.135,168.619l-18.775.04a.925.925,0,0,1-.972-.766c-.07-.419.138-1.079.758-1.079l18.922,0c.436,0,.674.537.763.774.1.271-.176,1.026-.7,1.027" transform="translate(-21.789 -132.774)" fill="#12263f"/>
        <path id="Trazado_1275375" data-name="Trazado 1275375" d="M46.921,192.379l-18.568.021a1,1,0,0,1-.97-.747.868.868,0,0,1,.748-1.106l18.756-.019a.905.905,0,0,1,.936.827.938.938,0,0,1-.9,1.024" transform="translate(-21.777 -151.649)" fill="#12263f"/>
        <path id="Trazado_1275376" data-name="Trazado 1275376" d="M124.793,117.708l-18.731.03a.913.913,0,0,1-1.034-.752.883.883,0,0,1,.838-1.089h18.717a.889.889,0,0,1,.8.747c.067.3-.1,1.062-.593,1.063" transform="translate(-83.584 -92.247)" fill="#12263f"/>
        <path id="Trazado_1275377" data-name="Trazado 1275377" d="M124.645,70.6l-18.733-.008a.959.959,0,0,1-.85-.739c-.112-.322.086-1.083.632-1.083h19.1c.47,0,.671.646.63.91a1.149,1.149,0,0,1-.782.92" transform="translate(-83.599 -54.734)" fill="#12263f"/>
        <path id="Trazado_1275378" data-name="Trazado 1275378" d="M124.881,93.886,105.7,93.9c-.552,0-.728-.774-.635-1.082A.965.965,0,0,1,106.1,92.1l18.488.014c.484,0,.7.457.817.7s-.013,1.07-.527,1.071" transform="translate(-83.607 -73.308)" fill="#12263f"/>
        <path id="Trazado_1275379" data-name="Trazado 1275379" d="M28.909,82.3a.942.942,0,1,1-1.178-1.461l9.9-9.86c.359-.357.961-.091,1.183.225a.974.974,0,0,1-.077,1.3Z" transform="translate(-21.75 -56.356)" fill="#12263f"/>
        <path id="Trazado_1275380" data-name="Trazado 1275380" d="M55.651,104.546c-.688-.034-1.087-.272-1.22-.807-.384-1.545,2.268-.963,4.751-.9l-.145-3.805a.9.9,0,0,1,1.8-.191l.265,4.88a.92.92,0,0,1-1.048,1.034Z" transform="translate(-43.294 -78.048)" fill="#12263f"/>
        <path id="Trazado_1275381" data-name="Trazado 1275381" d="M26.694,70.594l.166,3.69a.9.9,0,0,1-.727,1.04c-.416.081-1.037-.107-1.07-.651l-.3-4.895a.915.915,0,0,1,.879-1.025c1.724.033,3.371.075,5.083.244a.891.891,0,0,1,.7,1.082,1.01,1.01,0,0,1-1.086.736Z" transform="translate(-19.707 -54.723)" fill="#12263f"/>
        <path id="Trazado_1275382" data-name="Trazado 1275382" d="M188.286,175.866a7.905,7.905,0,1,1-6.18,9.434,7.885,7.885,0,0,1,6.18-9.434m.4,1.8a6.041,6.041,0,0,0-4.776,7.246,6.052,6.052,0,0,0,11.845-2.484,6.056,6.056,0,0,0-7.069-4.762" transform="translate(-144.8 -139.852)" fill="#12263f"/>
        <path id="Trazado_1275383" data-name="Trazado 1275383" d="M134.875,21.809l-16.182-.014a.908.908,0,0,1-.886-.946c0-.528.451-.9,1.106-.9l15.663,0a.966.966,0,0,1,.991.741.9.9,0,0,1-.692,1.119" transform="translate(-93.767 -15.878)" fill="#12263f"/>
        <path id="Trazado_1275384" data-name="Trazado 1275384" d="M49.928,17.85a1.361,1.361,0,0,1,1.878.735,1.376,1.376,0,0,1-.732,1.827,1.436,1.436,0,0,1-1.756-.561,1.387,1.387,0,0,1,.61-2" transform="translate(-39.087 -14.092)" fill="#12263f"/>
        <path id="Trazado_1275385" data-name="Trazado 1275385" d="M25.417,17.856a1.371,1.371,0,0,1,1.947.611,1.451,1.451,0,0,1-.641,1.88,1.424,1.424,0,0,1-1.783-.48,1.39,1.39,0,0,1,.477-2.011" transform="translate(-19.658 -14.068)" fill="#12263f"/>
        <path id="Trazado_1275386" data-name="Trazado 1275386" d="M74.365,17.881a1.4,1.4,0,1,1,1.148,2.55,1.371,1.371,0,0,1-1.728-.6,1.4,1.4,0,0,1,.58-1.947" transform="translate(-58.586 -14.11)" fill="#12263f"/>
      </g>
    </g>
  </g>
</svg>
