<svg xmlns="http://www.w3.org/2000/svg" xmlns:xlink="http://www.w3.org/1999/xlink" width="150" height="150" viewBox="0 0 150 150">
  <defs>
    <clipPath id="clip-path">
      <rect id="Rectángulo_466846" data-name="Rectángulo 466846" width="83.866" height="83.834" fill="#33611c"/>
    </clipPath>
  </defs>
  <g id="Grupo_1177487" data-name="Grupo 1177487" transform="translate(-383.746 -8400)">
    <circle id="Elipse_13609" data-name="Elipse 13609" cx="75" cy="75" r="75" transform="translate(383.746 8400)" fill="#c0fea6"/>
    <g id="Grupo_1213062" data-name="Grupo 1213062" transform="translate(416.813 8433.083)">
      <g id="Grupo_1213061" data-name="Grupo 1213061" clip-path="url(#clip-path)">
        <path id="Trazado_1275535" data-name="Trazado 1275535" d="M83.839,40.433A41.911,41.911,0,1,0,6.846,64.771L.134,80.887a2.174,2.174,0,0,0,.728,2.4,2.369,2.369,0,0,0,2.448.338l15.788-6.6a41.911,41.911,0,0,0,64.74-36.592M11.38,66.032a3.047,3.047,0,0,0-.307-3.3A37.235,37.235,0,1,1,20.12,72.1l-.432-.314L6.8,77.084Z" transform="translate(0 0)" fill="#33611c"/>
        <path id="Trazado_1275536" data-name="Trazado 1275536" d="M88.113,117.209A6.681,6.681,0,0,0,94.8,123.8a5.58,5.58,0,0,0,3.991-1.62L106,115.065l7.058,7.006a5.973,5.973,0,0,0,4.279,1.714,6.638,6.638,0,0,0,4.676-2.026,6.315,6.315,0,0,0,.079-8.865l-6.934-6.98,7.225-7.37a5.352,5.352,0,0,0,1.519-3.91,6.859,6.859,0,0,0-2.048-4.738c-2.173-2.1-6.164-2.712-8.641-.267L106,96.75l-6.906-6.882a6.423,6.423,0,0,0-8.952.033,6.783,6.783,0,0,0-2.024,4.7,5.672,5.672,0,0,0,1.61,4.091l7.114,7.214-7.114,7.212a5.67,5.67,0,0,0-1.613,4.09m31.12-22.664a1.605,1.605,0,0,1-.489,1.185l-8.559,8.617a2.22,2.22,0,0,0,0,3.122l8.493,8.539a1.747,1.747,0,0,1,.019,2.53,2.068,2.068,0,0,1-1.377.559,1.342,1.342,0,0,1-.987-.346l-8.349-8.262a2.67,2.67,0,0,0-1.8-.977c-.05,0-.1,0-.146,0a2.8,2.8,0,0,0-2.031.977l-8.228,8.24a1.916,1.916,0,0,1-2.493-.212,1.726,1.726,0,0,1-.032-2.429l8.306-8.318a2.493,2.493,0,0,0,0-3.72l-8.307-8.319a1.734,1.734,0,0,1,.037-2.435,1.943,1.943,0,0,1,1.353-.615,1.605,1.605,0,0,1,1.177.484l8.19,8.166a2.659,2.659,0,0,0,1.81.956,2.71,2.71,0,0,0,2.171-.954l8.187-8.168a1.734,1.734,0,0,1,2.434.038,1.911,1.911,0,0,1,.619,1.346" transform="translate(-64.046 -63.994)" fill="#33611c"/>
      </g>
    </g>
  </g>
</svg>
