<svg xmlns="http://www.w3.org/2000/svg" xmlns:xlink="http://www.w3.org/1999/xlink" width="84" height="84" viewBox="0 0 84 84">
  <defs>
    <clipPath id="clip-path">
      <rect id="Rectángulo_466848" data-name="Rectángulo 466848" width="62" height="62" fill="#12263f"/>
    </clipPath>
  </defs>
  <g id="Grupo_1212379" data-name="Grupo 1212379" transform="translate(-706 -1685.277)">
    <g id="Grupo_1177731" data-name="Grupo 1177731">
      <g id="Grupo_1119665" data-name="Grupo 1119665" transform="translate(530.111 -3835.723)">
        <path id="Trazado_991847" data-name="Trazado 991847" d="M5,0H79a5,5,0,0,1,5,5V79a5,5,0,0,1-5,5H5a5,5,0,0,1-5-5V5A5,5,0,0,1,5,0Z" transform="translate(175.889 5521)" fill="#87fce8"/>
      </g>
      <g id="Grupo_1213066" data-name="Grupo 1213066" transform="translate(717 1696.678)">
        <g id="Grupo_1213065" data-name="Grupo 1213065" clip-path="url(#clip-path)">
          <path id="Trazado_1275541" data-name="Trazado 1275541" d="M46.365,57.475h-31.5l.029,2.287,8.173.07c.5,0,.643.68.567.994a.906.906,0,0,1-.94.725l-8.067,0a1.506,1.506,0,0,1-1.566-1.536l-.008-2.714a1.5,1.5,0,0,1,1.424-1.641l3.771-.06,2.567-4.85L1.976,50.712a2.035,2.035,0,0,1-1.97-2.077L0,15.019a2.049,2.049,0,0,1,1.567-2.076,17.68,17.68,0,0,1,2.454-.076l.023-10.2A2.71,2.71,0,0,1,6.766,0L54.974.014A2.684,2.684,0,0,1,57.52,2.655l.021,10.213L60,12.942c.938.028,1.568,1.058,1.567,2.077l-.007,33.615a2.075,2.075,0,0,1-2.137,2.093l-18.67.023L43.315,55.6l3.429.044a1.592,1.592,0,0,1,1.523,1.666l-.034,2.843a1.5,1.5,0,0,1-1.686,1.41l-19.592-.011a.828.828,0,0,1-.816-.695c-.065-.265,0-1.034.449-1.035l19.772-.036ZM18.093,40.824l0-2.752a1.416,1.416,0,0,1,1.547-1.485c.691.031.857-.357,1.062-.922.155-.428.306-.674-.139-1.059a1.438,1.438,0,0,1-.271-2.02l3.177-3.132c.7-.691,1.565.007,2.22.479.379.272,1.579-.209,1.623-.66.074-.772.155-1.848,1.038-1.855l4.707-.042c.751-.007,1.163.821,1.119,1.468-.043.628.222.758.674.953.538.232.956.374,1.409-.11a1.475,1.475,0,0,1,2.148-.006l2.776,2.8c1.122,1.132-.492,2.318-.509,2.625-.01.186.217.465.254.679.237,1.386,2.524.176,2.536,2.293l.015,2.753,10.971.022a1.15,1.15,0,0,0,1.29-1.1L55.749,9.43l-6.3-.009a.884.884,0,1,1,0-1.767l6.3-.008,0-4.776a1.124,1.124,0,0,0-1.176-1.124H6.993A1.107,1.107,0,0,0,5.841,2.7l-.02,4.942,39.167-.007c.669,0,1.022.189,1.123.769.058.334-.114,1.016-.741,1.016l-39.551,0L5.8,18.444a.92.92,0,0,1-.9.909c-.294,0-.842-.288-.847-.73l-.041-3.978a7.3,7.3,0,0,0-2.259.079l.009,29.9H39.407c.578,0,.757.5.781.875a.8.8,0,0,1-.779.881l-37.625,0a7.18,7.18,0,0,0,.123,2.521L59.731,48.9l.059-2.521-16.113.015c-.623,0-1.06-.323-1.068-.908a.905.905,0,0,1,.882-.86H59.81L59.8,14.716l-2.253-.1.005,25a2.906,2.906,0,0,1-2.973,3.049l-47.593.005A2.834,2.834,0,0,1,4.053,40L4.028,22.5c0-.583.65-.8,1.024-.736a.869.869,0,0,1,.761.93l.01,17.071a1.1,1.1,0,0,0,1.1,1.077ZM38.139,40.8l3.443.025-.033-2.558c-.669.051-1.554-.021-1.806-.652l-.979-2.449c-.24-.6.453-1.175.827-1.663L37.21,31.157c-1.169,1.4-2.1.772-4.145-.188-.617-.289-.541-1.221-.633-1.832l-3.355.048c0,.6.018,1.422-.481,1.712a11.6,11.6,0,0,1-2.662,1.093c-.609.169-1.209-.474-1.62-.834l-2.342,2.438c.469.426,1,1.02.829,1.572a17.7,17.7,0,0,1-1.053,2.557c-.276.555-1.139.577-1.731.55l-.036,2.559,3.444-.033a7.4,7.4,0,1,1,14.713,0m-1.786,0A5.623,5.623,0,0,0,30.5,34.389a5.557,5.557,0,0,0-5.229,6.467Zm3.172,14.784a4.13,4.13,0,0,0,1.728-.027l-2.6-4.81H22.909l-2.6,4.809a3.611,3.611,0,0,0,1.759,0,12.5,12.5,0,0,1,17.456.029m-2.882.021a10.5,10.5,0,0,0-11.729,0Z" transform="translate(0 0)" fill="#12263f"/>
          <path id="Trazado_1275542" data-name="Trazado 1275542" d="M126.422,80.909l-.075,2.626a.95.95,0,0,1-.866.876.938.938,0,0,1-.952-1.062l0-7.707a.979.979,0,0,1,1.036-1.013l2.14.013a3.131,3.131,0,0,1,.891,6.134,6.545,6.545,0,0,1-2.178.134m1.661-1.89a1.287,1.287,0,0,0,.956-1.332c-.1-1.146-1.222-1.44-2.683-1.244v2.649a4.724,4.724,0,0,0,1.728-.072" transform="translate(-100.571 -60.271)" fill="#12263f"/>
          <path id="Trazado_1275543" data-name="Trazado 1275543" d="M168.079,79.654l-.039,3.872a.934.934,0,0,1-.884.872.917.917,0,0,1-.861-.874l0-3.839-2.427-3.747a.877.877,0,0,1,.3-1.189.922.922,0,0,1,1.3.369l1.712,2.647,1.777-2.748a.892.892,0,0,1,1.514.942Z" transform="translate(-132.237 -60.256)" fill="#12263f"/>
          <path id="Trazado_1275544" data-name="Trazado 1275544" d="M84.787,85.724a.929.929,0,0,1,.1,1.265.84.84,0,0,1-1.211.136l-3.551-3.571c-.322-.324-.066-.943.213-1.22l3.18-3.16a.893.893,0,0,1,1.286-.026.91.91,0,0,1,.007,1.319L82.2,83.12Z" transform="translate(-64.591 -63.71)" fill="#12263f"/>
          <path id="Trazado_1275545" data-name="Trazado 1275545" d="M214.889,87.072a.846.846,0,0,1-1.262-.091.96.96,0,0,1,.142-1.319l2.547-2.55L213.7,80.458a.9.9,0,0,1-.089-1.209A.889.889,0,0,1,215,79.165l3.18,3.158c.282.28.534.9.212,1.221Z" transform="translate(-172.362 -63.7)" fill="#12263f"/>
          <path id="Trazado_1275546" data-name="Trazado 1275546" d="M64.267,19.974a.893.893,0,0,1,1.229.276.9.9,0,0,1-1.447,1.067.909.909,0,0,1,.218-1.344" transform="translate(-51.564 -16.024)" fill="#12263f"/>
          <path id="Trazado_1275547" data-name="Trazado 1275547" d="M43.008,19.955a.875.875,0,0,1,1.164.505.888.888,0,0,1-.426,1.114.953.953,0,0,1-1.225-.406.89.89,0,0,1,.486-1.212" transform="translate(-34.268 -16.058)" fill="#12263f"/>
          <path id="Trazado_1275548" data-name="Trazado 1275548" d="M85.709,19.952a.831.831,0,0,1,1.143.447.89.89,0,0,1-.49,1.184.855.855,0,0,1-1.087-.389.894.894,0,0,1,.434-1.242" transform="translate(-68.789 -16.048)" fill="#12263f"/>
        </g>
      </g>
    </g>
  </g>
</svg>
