<svg xmlns="http://www.w3.org/2000/svg" xmlns:xlink="http://www.w3.org/1999/xlink" width="84" height="84" viewBox="0 0 84 84">
  <defs>
    <clipPath id="clip-path">
      <rect id="Rectángulo_466841" data-name="Rectángulo 466841" width="61.477" height="61.489" fill="#12263f"/>
    </clipPath>
  </defs>
  <g id="Grupo_1212271" data-name="Grupo 1212271" transform="translate(-706 -1685.277)">
    <g id="Grupo_1177731" data-name="Grupo 1177731">
      <g id="Grupo_1119665" data-name="Grupo 1119665" transform="translate(530.111 -3835.723)">
        <path id="Trazado_991847" data-name="Trazado 991847" d="M5,0H79a5,5,0,0,1,5,5V79a5,5,0,0,1-5,5H5a5,5,0,0,1-5-5V5A5,5,0,0,1,5,0Z" transform="translate(175.889 5521)" fill="#87fce8"/>
      </g>
      <g id="Grupo_1213052" data-name="Grupo 1213052" transform="translate(719.229 1696.533)">
        <g id="Grupo_1213051" data-name="Grupo 1213051" clip-path="url(#clip-path)">
          <path id="Trazado_1275474" data-name="Trazado 1275474" d="M32.527,50.878l1.05,4.438,3.1.016a5.142,5.142,0,0,1,5.3,5.107.993.993,0,0,1-1.046,1.037H10.257A1.006,1.006,0,0,1,9.212,60.44a5.063,5.063,0,0,1,5.3-5.1l3.1-.029,1.522-6.1L5.085,49.172A5,5,0,0,1,.007,44.241L0,13.122a5,5,0,0,1,4.04-4.828l.041-5.24A2.986,2.986,0,0,1,7.171,0H44.02a2.983,2.983,0,0,1,3.088,3.055L47.151,8.3a4.976,4.976,0,0,1,4.038,4.813l-.037,23.733A14.362,14.362,0,0,1,48.769,44.2L52.259,47.7c.242-.078.92-.317,1.146-.09l6.952,6.965a4.093,4.093,0,0,1-5.786,5.785l-6.779-6.74a1.3,1.3,0,0,1-.1-1.362l-3.5-3.5a15.524,15.524,0,0,1-11.663,2.114M45.059,8.2l.017-5.136A1.062,1.062,0,0,0,44,2.032l-36.818,0A1.008,1.008,0,0,0,6.13,3.066l0,5.139ZM10.234,34.774l0-24.528H6.111l.008,23.53a1.021,1.021,0,0,0,1.027,1.047Zm15.249-10.3a19.262,19.262,0,0,1,2.633-1.89l-4.567-.06a1,1,0,0,1-1.01-1.106.983.983,0,0,1,1.012-.921l6.144,0c.5,0,.826.357,1.092.846a15.36,15.36,0,0,1,14.278,2.232l.015-13.34H12.261l0,24.615,8.2,0,.274-2.035-1.287-.033a1,1,0,0,1-1.013-1.109c.1-1.3,1.507-.739,2.955-1.038a13.7,13.7,0,0,1,2.156-3.959,1.085,1.085,0,0,1-1.01-1.152c.149-1.526,2.364-.6,2.942-1.042m-5.067,12.4-13.266,0a3,3,0,0,1-3.067-3.08l0-23.386a3.077,3.077,0,0,0-2.057,2.928L2.009,38.953,20.7,38.942a5.842,5.842,0,0,0-.287-2.066m28.725-8.821.042-14.733A3.152,3.152,0,0,0,47.1,10.4l.025,15.1a15.573,15.573,0,0,1,2.017,2.556M34.4,22.622A13.318,13.318,0,1,0,49.09,34.414,13.317,13.317,0,0,0,34.4,22.622m-8.975,24.5a15.358,15.358,0,0,1-4.086-6.141H2.032l-.009,3.088a3.029,3.029,0,0,0,3.09,3.068Zm23.756,3.655,1.593-1.606-3.356-3.3a7.569,7.569,0,0,1-1.562,1.584Zm-19.026-.685-1.964-.829-6.916-.085-1.518,6.178L31.43,55.3Zm25.889,8.9a2.124,2.124,0,0,0,2.832-.217,2.045,2.045,0,0,0,.033-2.747L52.936,49.98l-2.951,2.97Zm-16.279.455a3.049,3.049,0,0,0-2.919-2.056h-22.5a3.058,3.058,0,0,0-2.922,2.059Z" transform="translate(-0.001)" fill="#12263f"/>
          <path id="Trazado_1275475" data-name="Trazado 1275475" d="M101.277,82.012l-10.314.016a1.01,1.01,0,0,1-1.019-.936.986.986,0,0,1,1.014-1.1l10.232,0a.98.98,0,0,1,1.015.926.97.97,0,0,1-.928,1.093" transform="translate(-71.505 -63.596)" fill="#12263f"/>
          <path id="Trazado_1275476" data-name="Trazado 1275476" d="M169.23,82.008l-8.27.017a1.009,1.009,0,0,1-1.017-.935.987.987,0,0,1,1.012-1.1l8.186,0a.982.982,0,0,1,1.014.925.967.967,0,0,1-.925,1.091" transform="translate(-127.156 -63.595)" fill="#12263f"/>
          <path id="Trazado_1275477" data-name="Trazado 1275477" d="M93.09,62.007l-2.13.017a1.012,1.012,0,1,1,0-2.024H93a.97.97,0,0,1,1.01.921.94.94,0,0,1-.916,1.087" transform="translate(-71.507 -47.701)" fill="#12263f"/>
          <path id="Trazado_1275478" data-name="Trazado 1275478" d="M70.606,60.042a1,1,0,0,1,1.268.536,1.015,1.015,0,1,1-1.852.831,1.008,1.008,0,0,1,.584-1.367" transform="translate(-55.603 -47.687)" fill="#12263f"/>
          <path id="Trazado_1275479" data-name="Trazado 1275479" d="M70.606,80.042a1,1,0,0,1,1.268.536,1.015,1.015,0,1,1-1.852.831,1.008,1.008,0,0,1,.584-1.367" transform="translate(-55.603 -63.588)" fill="#12263f"/>
          <path id="Trazado_1275480" data-name="Trazado 1275480" d="M70.606,100.042a1,1,0,0,1,1.268.536,1.015,1.015,0,1,1-1.852.831,1.008,1.008,0,0,1,.584-1.367" transform="translate(-55.603 -79.488)" fill="#12263f"/>
          <path id="Trazado_1275481" data-name="Trazado 1275481" d="M70.606,120.042a1,1,0,0,1,1.268.536,1.015,1.015,0,1,1-1.852.831,1.008,1.008,0,0,1,.584-1.367" transform="translate(-55.603 -95.389)" fill="#12263f"/>
          <path id="Trazado_1275482" data-name="Trazado 1275482" d="M70.606,150.042a1,1,0,0,1,1.268.536,1.015,1.015,0,1,1-1.852.831,1.008,1.008,0,0,1,.584-1.367" transform="translate(-55.603 -119.239)" fill="#12263f"/>
          <path id="Trazado_1275483" data-name="Trazado 1275483" d="M40.606,20.042a1,1,0,0,1,1.268.536,1.015,1.015,0,1,1-1.852.831,1.008,1.008,0,0,1,.584-1.367" transform="translate(-31.752 -15.886)" fill="#12263f"/>
          <path id="Trazado_1275484" data-name="Trazado 1275484" d="M60.606,20.042a1,1,0,0,1,1.268.536,1.015,1.015,0,1,1-1.852.831,1.008,1.008,0,0,1,.584-1.367" transform="translate(-47.652 -15.886)" fill="#12263f"/>
          <path id="Trazado_1275485" data-name="Trazado 1275485" d="M80.606,20.042a1,1,0,0,1,1.268.536,1.015,1.015,0,1,1-1.852.831,1.008,1.008,0,0,1,.584-1.367" transform="translate(-63.553 -15.886)" fill="#12263f"/>
          <path id="Trazado_1275486" data-name="Trazado 1275486" d="M129.757,120.072a11.261,11.261,0,1,1-9.711,12.77,11.233,11.233,0,0,1,9.711-12.77m.2,2.037A9.216,9.216,0,1,0,140.327,130a9.192,9.192,0,0,0-10.372-7.889" transform="translate(-95.349 -95.383)" fill="#12263f"/>
          <path id="Trazado_1275487" data-name="Trazado 1275487" d="M155.18,156.8a1.065,1.065,0,0,1,.224-1.54,1.077,1.077,0,0,1,1.465.354l1.026,1.469,3.327-6.574a1,1,0,0,1,1.308-.445.982.982,0,0,1,.527,1.267l-4.146,8.337a1,1,0,0,1-.812.527,1.065,1.065,0,0,1-.991-.513Z" transform="translate(-123.193 -119.24)" fill="#12263f"/>
        </g>
      </g>
    </g>
  </g>
</svg>
